<mxfile host="app.diagrams.net" agent="Mozilla/5.0 (Windows NT 10.0; Win64; x64) AppleWebKit/537.36 (KHTML, like Gecko) Chrome/130.0.0.0 Safari/537.36" version="24.8.4">
  <diagram name="Page-1" id="aDQIKAoYzw9WNK9VJfAI">
    <mxGraphModel dx="648" dy="358" grid="1" gridSize="10" guides="1" tooltips="1" connect="1" arrows="1" fold="1" page="1" pageScale="1" pageWidth="1169" pageHeight="827" math="1" shadow="0">
      <root>
        <mxCell id="0" />
        <mxCell id="1" parent="0" />
        <mxCell id="eKGs76aKoCshJpdN0meX-2" value="$$\mu S$$" style="rounded=1;whiteSpace=wrap;html=1;" vertex="1" parent="1">
          <mxGeometry x="120" y="120" width="120" height="120" as="geometry" />
        </mxCell>
        <mxCell id="eKGs76aKoCshJpdN0meX-3" value="IR" style="rounded=0;whiteSpace=wrap;html=1;" vertex="1" parent="1">
          <mxGeometry x="40" y="200" width="40" height="40" as="geometry" />
        </mxCell>
        <mxCell id="eKGs76aKoCshJpdN0meX-4" value="$$\mu PC$$" style="rounded=0;whiteSpace=wrap;html=1;" vertex="1" parent="1">
          <mxGeometry x="280" y="200" width="40" height="40" as="geometry" />
        </mxCell>
        <mxCell id="eKGs76aKoCshJpdN0meX-5" value="$$\mu IR$$" style="rounded=0;whiteSpace=wrap;html=1;" vertex="1" parent="1">
          <mxGeometry x="280" y="120" width="40" height="40" as="geometry" />
        </mxCell>
        <mxCell id="eKGs76aKoCshJpdN0meX-6" value="CM" style="rounded=1;whiteSpace=wrap;html=1;" vertex="1" parent="1">
          <mxGeometry x="360" y="120" width="80" height="120" as="geometry" />
        </mxCell>
        <mxCell id="eKGs76aKoCshJpdN0meX-7" value="" style="shape=flexArrow;endArrow=classic;html=1;rounded=0;exitX=1;exitY=0.5;exitDx=0;exitDy=0;entryX=0;entryY=0.858;entryDx=0;entryDy=0;entryPerimeter=0;" edge="1" parent="1" source="eKGs76aKoCshJpdN0meX-4">
          <mxGeometry width="50" height="50" relative="1" as="geometry">
            <mxPoint x="150" y="240" as="sourcePoint" />
            <mxPoint x="360" y="220.1199999999999" as="targetPoint" />
          </mxGeometry>
        </mxCell>
        <mxCell id="eKGs76aKoCshJpdN0meX-8" value="" style="shape=flexArrow;endArrow=classic;html=1;rounded=0;exitX=0.003;exitY=0.17;exitDx=0;exitDy=0;exitPerimeter=0;entryX=1;entryY=0.5;entryDx=0;entryDy=0;" edge="1" parent="1" source="eKGs76aKoCshJpdN0meX-6" target="eKGs76aKoCshJpdN0meX-5">
          <mxGeometry width="50" height="50" relative="1" as="geometry">
            <mxPoint x="150" y="260" as="sourcePoint" />
            <mxPoint x="200" y="210" as="targetPoint" />
          </mxGeometry>
        </mxCell>
        <mxCell id="eKGs76aKoCshJpdN0meX-9" value="" style="shape=flexArrow;endArrow=classic;html=1;rounded=0;exitX=1;exitY=0.857;exitDx=0;exitDy=0;entryX=0;entryY=0.5;entryDx=0;entryDy=0;exitPerimeter=0;" edge="1" parent="1" target="eKGs76aKoCshJpdN0meX-4">
          <mxGeometry width="50" height="50" relative="1" as="geometry">
            <mxPoint x="240" y="219.9799999999999" as="sourcePoint" />
            <mxPoint x="240" y="130" as="targetPoint" />
          </mxGeometry>
        </mxCell>
        <mxCell id="eKGs76aKoCshJpdN0meX-10" value="" style="shape=flexArrow;endArrow=classic;html=1;rounded=0;exitX=1;exitY=0.5;exitDx=0;exitDy=0;entryX=-0.003;entryY=0.833;entryDx=0;entryDy=0;entryPerimeter=0;" edge="1" parent="1" source="eKGs76aKoCshJpdN0meX-3" target="eKGs76aKoCshJpdN0meX-2">
          <mxGeometry width="50" height="50" relative="1" as="geometry">
            <mxPoint x="190" y="180" as="sourcePoint" />
            <mxPoint x="118.68000000000006" y="219.9799999999999" as="targetPoint" />
          </mxGeometry>
        </mxCell>
        <mxCell id="eKGs76aKoCshJpdN0meX-13" value="" style="shape=flexArrow;endArrow=classic;html=1;rounded=0;exitX=-0.003;exitY=0.141;exitDx=0;exitDy=0;exitPerimeter=0;entryX=1;entryY=0.5;entryDx=0;entryDy=0;" edge="1" parent="1">
          <mxGeometry width="50" height="50" relative="1" as="geometry">
            <mxPoint x="280" y="139.87" as="sourcePoint" />
            <mxPoint x="240" y="139.87" as="targetPoint" />
          </mxGeometry>
        </mxCell>
        <mxCell id="eKGs76aKoCshJpdN0meX-14" value="FR" style="rounded=0;whiteSpace=wrap;html=1;" vertex="1" parent="1">
          <mxGeometry x="40" y="120" width="40" height="40" as="geometry" />
        </mxCell>
        <mxCell id="eKGs76aKoCshJpdN0meX-15" value="" style="shape=flexArrow;endArrow=classic;html=1;rounded=0;exitX=1;exitY=0.5;exitDx=0;exitDy=0;entryX=-0.011;entryY=0.857;entryDx=0;entryDy=0;entryPerimeter=0;" edge="1" parent="1" source="eKGs76aKoCshJpdN0meX-14">
          <mxGeometry width="50" height="50" relative="1" as="geometry">
            <mxPoint x="81" y="139.87" as="sourcePoint" />
            <mxPoint x="120" y="139.87" as="targetPoint" />
          </mxGeometry>
        </mxCell>
        <mxCell id="eKGs76aKoCshJpdN0meX-19" value="$$\mu O$$" style="text;html=1;align=center;verticalAlign=middle;whiteSpace=wrap;rounded=0;" vertex="1" parent="1">
          <mxGeometry x="130" y="80" width="60" height="30" as="geometry" />
        </mxCell>
        <mxCell id="eKGs76aKoCshJpdN0meX-20" value="" style="shape=flexArrow;endArrow=classic;html=1;rounded=0;exitX=0.83;exitY=0.004;exitDx=0;exitDy=0;exitPerimeter=0;" edge="1" parent="1" source="eKGs76aKoCshJpdN0meX-2">
          <mxGeometry width="50" height="50" relative="1" as="geometry">
            <mxPoint x="240" y="140" as="sourcePoint" />
            <mxPoint x="220" y="80" as="targetPoint" />
          </mxGeometry>
        </mxCell>
        <mxCell id="eKGs76aKoCshJpdN0meX-21" value="BUS" style="shape=link;html=1;rounded=0;width=38.4375;fillColor=#d5e8d4;strokeColor=#82b366;" edge="1" parent="1">
          <mxGeometry width="100" relative="1" as="geometry">
            <mxPoint x="40" y="60" as="sourcePoint" />
            <mxPoint x="440" y="60" as="targetPoint" />
          </mxGeometry>
        </mxCell>
        <mxCell id="eKGs76aKoCshJpdN0meX-18" value="" style="endArrow=classic;html=1;rounded=0;fillColor=#f8cecc;strokeColor=#b85450;" edge="1" parent="1">
          <mxGeometry width="50" height="50" relative="1" as="geometry">
            <mxPoint x="140" y="120" as="sourcePoint" />
            <mxPoint x="140" y="20" as="targetPoint" />
          </mxGeometry>
        </mxCell>
      </root>
    </mxGraphModel>
  </diagram>
</mxfile>
